<?xml version="1.0" encoding="UTF-8" standalone="no"?>
<!-- Created with Inkscape (http://www.inkscape.org/) -->

<svg
   width="52.945988mm"
   height="52.946095mm"
   viewBox="0 0 52.945988 52.946095"
   version="1.1"
   id="svg1"
   xml:space="preserve"
   xmlns="http://www.w3.org/2000/svg"
   xmlns:svg="http://www.w3.org/2000/svg"><defs
     id="defs1" /><g
     id="layer3"
     transform="translate(-7.3900019,-5.3320254)"><path
       style="fill:#0097b2;fill-opacity:1;stroke-width:0.264583"
       d="M 14.707475,57.982417 C 12.200886,57.308309 9.6418918,55.276881 8.5335892,53.081347 7.4923136,51.018589 7.3900019,50.283244 7.3900019,44.861971 V 39.94343 h 8.4189891 c 4.630446,0 8.418991,-0.06272 8.418991,-0.139369 0,-0.07665 -3.05145,-3.191677 -6.781004,-6.92228 l -6.781003,-6.782912 h 8.745434 8.745434 V 17.353435 8.608001 l 6.782914,6.781003 c 3.730601,3.729551 6.845628,6.781001 6.92228,6.781001 0.07665,0 0.139367,-3.788545 0.139367,-8.418988 V 5.3320254 h 4.918543 c 5.423226,0 6.156241,0.1021212 8.223478,1.1456591 1.461481,0.7377535 3.425203,2.6950828 4.13086,4.1174135 1.088832,2.194661 1.057174,1.600142 1.059587,19.899874 L 60.335989,47.33247 46.724812,33.722251 C 39.238665,26.23663 33.050706,20.112031 32.973794,20.112031 c -0.07691,0 -0.13984,2.399411 -0.13984,5.332026 v 5.332029 h -5.332026 c -2.932615,0 -5.332026,0.06293 -5.332026,0.139838 0,0.07691 6.124596,6.26487 13.610219,13.751017 l 13.61022,13.611177 -16.837501,-0.0123 c -14.085975,-0.01029 -17.002218,-0.05661 -17.845471,-0.28339 z m 18.968484,-8.871643 -4.861608,-4.864306 h -8.560654 -8.560655 v 2.235856 c 0,1.229723 0.08939,2.652665 0.198644,3.162099 0.398378,1.857573 1.739339,3.339505 3.605326,3.984342 0.884743,0.305747 1.903447,0.334618 12.003672,0.340206 l 11.036882,0.0061 z M 56.033054,25.278452 c 0,-12.378391 0.02424,-12.145364 -1.431811,-13.764845 -1.302385,-1.448564 -2.241378,-1.7612249 -5.537242,-1.8437564 l -2.759557,-0.069104 v 8.5751164 8.575117 l 4.722614,4.725339 c 2.597436,2.598933 4.786374,4.725337 4.864304,4.725337 0.07793,0 0.141692,-4.91544 0.141692,-10.923204 z"
       id="path6" /></g></svg>
